<svg width="125" height="75" viewBox="0 0 125 75" fill="none" xmlns="http://www.w3.org/2000/svg">
<path d="M31.8328 29.4882H88.3833V21.5069H31.8328V8.04223H88.3833V0.0609131H27.478C25.4539 0.0609131 23.7979 1.70592 23.7979 3.71648V43.0138H31.8328V29.4882Z" fill="#44C697"/>
<path d="M97.5835 0H93.1674V42.9529H101.202V3.65556C101.264 1.645 99.6075 0 97.5835 0Z" fill="#1E2E36"/>
<path d="M107.581 27.9651V49.2892H17.4191V27.9651H4.60016C2.0241 27.9651 6.10352e-05 30.0366 6.10352e-05 32.5345V44.6588C6.10352e-05 47.2177 2.08544 49.2283 4.60016 49.2283H7.54422L8.83225 64.2161V75H12.1443L16.0084 64.2161H108.992L112.856 75H116.168V64.2161L117.456 49.2283H120.4C122.976 49.2283 125 47.1568 125 44.6588V32.5345C125 29.9756 122.915 27.9651 120.4 27.9651H107.581Z" fill="#1E2E36"/>
</svg>
