<svg width="60" height="60" viewBox="0 0 60 60" fill="none" xmlns="http://www.w3.org/2000/svg">
<path fill-rule="evenodd" clip-rule="evenodd" d="M0 30C0 13.4315 13.4315 0 30 0C46.5685 0 60 13.4315 60 30C60 46.5685 46.5685 60 30 60C13.4315 60 0 46.5685 0 30Z" fill="#A0AEC0"/>
<rect width="60" height="60" fill="#A0AEC0"/>
<path fill-rule="evenodd" clip-rule="evenodd" d="M23.4041 14.0967C25.1108 14.019 25.6561 14 30.0015 14H29.9965C34.3432 14 34.8866 14.019 36.5932 14.0967C38.2966 14.1747 39.4599 14.4443 40.4799 14.84C41.5333 15.2483 42.4233 15.795 43.3133 16.685C44.2033 17.5744 44.75 18.467 45.16 19.5194C45.5533 20.5367 45.8233 21.6994 45.9033 23.4028C45.98 25.1094 46 25.6548 46 30.0002C46 34.3455 45.98 34.8896 45.9033 36.5962C45.8233 38.2989 45.5533 39.4619 45.16 40.4796C44.75 41.5316 44.2033 42.4243 43.3133 43.3136C42.4243 44.2036 41.533 44.7517 40.4809 45.1603C39.4629 45.556 38.2989 45.8257 36.5956 45.9037C34.8889 45.9813 34.3452 46.0003 29.9995 46.0003C25.6545 46.0003 25.1094 45.9813 23.4028 45.9037C21.6997 45.8257 20.5367 45.556 19.5187 45.1603C18.467 44.7517 17.5744 44.2036 16.6854 43.3136C15.7957 42.4243 15.249 41.5316 14.84 40.4793C14.4447 39.4619 14.175 38.2993 14.0967 36.5959C14.0193 34.8892 14 34.3455 14 30.0002C14 25.6548 14.02 25.1091 14.0963 23.4024C14.173 21.6997 14.443 20.5367 14.8397 19.5191C15.2497 18.467 15.7964 17.5744 16.6864 16.685C17.5757 15.7954 18.4684 15.2487 19.5207 14.84C20.5381 14.4443 21.7007 14.1747 23.4041 14.0967ZM29.4683 16.8832C29.1447 16.8831 28.8449 16.883 28.5662 16.8834V16.8794C25.5842 16.8827 25.0122 16.9027 23.5362 16.9694C21.9762 17.0411 21.1291 17.3011 20.5651 17.5211C19.8185 17.8117 19.2851 18.1584 18.7251 18.7184C18.1651 19.2784 17.8178 19.8118 17.5278 20.5584C17.3088 21.1224 17.0481 21.9691 16.9768 23.5291C16.9001 25.2158 16.8848 25.7198 16.8848 29.9925C16.8848 34.2652 16.9001 34.7719 16.9768 36.4586C17.0478 38.0186 17.3088 38.8653 17.5278 39.4286C17.8184 40.1756 18.1651 40.7076 18.7251 41.2676C19.2851 41.8277 19.8185 42.1743 20.5651 42.4643C21.1295 42.6833 21.9762 42.944 23.5362 43.016C25.2229 43.0927 25.7292 43.1093 30.0016 43.1093C34.2736 43.1093 34.7803 43.0927 36.467 43.016C38.027 42.9447 38.8743 42.6847 39.4377 42.4647C40.1847 42.1747 40.7163 41.828 41.2764 41.268C41.8364 40.7083 42.1837 40.1766 42.4737 39.43C42.6927 38.8666 42.9534 38.0199 43.0247 36.4599C43.1014 34.7732 43.118 34.2666 43.118 29.9965C43.118 25.7265 43.1014 25.2198 43.0247 23.5331C42.9537 21.9731 42.6927 21.1264 42.4737 20.5631C42.183 19.8164 41.8364 19.2831 41.2764 18.7231C40.7167 18.1631 40.1843 17.8164 39.4377 17.5264C38.8737 17.3074 38.027 17.0467 36.467 16.9754C34.78 16.8987 34.2736 16.8834 30.0016 16.8834L29.4683 16.8832ZM21.7849 30C21.7849 25.4622 25.464 21.7832 30.0017 21.7832C34.5392 21.7834 38.2171 25.4623 38.2171 30C38.2171 34.5377 34.5394 38.215 30.0017 38.215C25.464 38.215 21.7849 34.5377 21.7849 30ZM35.335 30.0004C35.335 27.0547 32.947 24.667 30.0016 24.667C27.0559 24.667 24.6682 27.0547 24.6682 30.0004C24.6682 32.9457 27.0559 35.3338 30.0016 35.3338C32.947 35.3338 35.335 32.9457 35.335 30.0004ZM36.6223 21.4596C36.6223 20.3992 37.4823 19.5402 38.5423 19.5402V19.5396C39.6023 19.5396 40.4624 20.3996 40.4624 21.4596C40.4624 22.5196 39.6023 23.3796 38.5423 23.3796C37.4823 23.3796 36.6223 22.5196 36.6223 21.4596Z" fill="white"/>
</svg>
