<svg width="22" height="22" viewBox="0 0 22 22" fill="none" xmlns="http://www.w3.org/2000/svg">
<path fill-rule="evenodd" clip-rule="evenodd" d="M6.60271 0.397941C7.7405 0.346163 8.10406 0.333496 11.001 0.333496H10.9976C13.8955 0.333496 14.2577 0.346163 15.3955 0.397941C16.531 0.449942 17.3066 0.629721 17.9866 0.893502C18.6888 1.16573 19.2822 1.53018 19.8755 2.12351C20.4689 2.71641 20.8333 3.31153 21.1066 4.01309C21.3689 4.69132 21.5489 5.46644 21.6022 6.60201C21.6533 7.73979 21.6666 8.10335 21.6666 11.0003C21.6666 13.8972 21.6533 14.2599 21.6022 15.3977C21.5489 16.5328 21.3689 17.3081 21.1066 17.9866C20.8333 18.6879 20.4689 19.283 19.8755 19.8759C19.2828 20.4693 18.6886 20.8346 17.9873 21.107C17.3086 21.3708 16.5326 21.5506 15.397 21.6026C14.2592 21.6544 13.8968 21.667 10.9996 21.667C8.10295 21.667 7.73961 21.6544 6.60182 21.6026C5.46648 21.5506 4.69114 21.3708 4.01246 21.107C3.31134 20.8346 2.71623 20.4693 2.12355 19.8759C1.53044 19.283 1.16599 18.6879 0.893319 17.9863C0.62976 17.3081 0.449981 16.533 0.397758 15.3974C0.346202 14.2596 0.333313 13.8972 0.333313 11.0003C0.333313 8.10335 0.346646 7.73957 0.397536 6.60178C0.448647 5.46666 0.628649 4.69132 0.893096 4.01287C1.16643 3.31153 1.53088 2.71641 2.12422 2.12351C2.71712 1.5304 3.31223 1.16595 4.0138 0.893502C4.69202 0.629721 5.46714 0.449942 6.60271 0.397941ZM10.6455 2.25566C10.4298 2.25556 10.2299 2.25547 10.0441 2.25576V2.25309C8.05611 2.25532 7.67477 2.26865 6.69076 2.31309C5.65075 2.36087 5.08607 2.53421 4.71007 2.68088C4.21229 2.87465 3.85673 3.10577 3.48339 3.47911C3.11005 3.85244 2.8785 4.208 2.68516 4.70578C2.53916 5.08179 2.36538 5.64624 2.31782 6.68625C2.26671 7.81071 2.25649 8.14671 2.25649 10.9952C2.25649 13.8437 2.26671 14.1814 2.31782 15.3059C2.36516 16.3459 2.53916 16.9104 2.68516 17.2859C2.87894 17.7839 3.11005 18.1386 3.48339 18.5119C3.85673 18.8853 4.21229 19.1164 4.71007 19.3097C5.0863 19.4557 5.65075 19.6295 6.69076 19.6775C7.81521 19.7286 8.15277 19.7397 11.001 19.7397C13.8491 19.7397 14.1868 19.7286 15.3113 19.6775C16.3513 19.6299 16.9162 19.4566 17.2918 19.3099C17.7898 19.1166 18.1442 18.8855 18.5175 18.5122C18.8909 18.139 19.1224 17.7846 19.3158 17.2868C19.4618 16.9112 19.6356 16.3468 19.6831 15.3068C19.7342 14.1823 19.7453 13.8445 19.7453 10.9979C19.7453 8.15115 19.7342 7.81337 19.6831 6.68892C19.6358 5.64891 19.4618 5.08446 19.3158 4.7089C19.122 4.21111 18.8909 3.85555 18.5175 3.48222C18.1444 3.10888 17.7895 2.87777 17.2918 2.68443C16.9158 2.53843 16.3513 2.36465 15.3113 2.31709C14.1866 2.26598 13.8491 2.25576 11.001 2.25576L10.6455 2.25566ZM5.52317 11.0001C5.52317 7.97499 7.97587 5.5223 11.001 5.5223H11.0008C14.0259 5.5223 16.478 7.97499 16.478 11.0001C16.478 14.0253 14.0262 16.4769 11.001 16.4769C7.97587 16.4769 5.52317 14.0253 5.52317 11.0001ZM14.5566 11.0004C14.5566 9.03662 12.9645 7.44483 11.001 7.44483C9.03717 7.44483 7.44537 9.03662 7.44537 11.0004C7.44537 12.964 9.03717 14.556 11.001 14.556C12.9645 14.556 14.5566 12.964 14.5566 11.0004ZM15.4149 5.30654C15.4149 4.59965 15.9883 4.02697 16.695 4.02697V4.02653C17.4016 4.02653 17.975 4.59987 17.975 5.30654C17.975 6.01322 17.4016 6.58656 16.695 6.58656C15.9883 6.58656 15.4149 6.01322 15.4149 5.30654Z" fill="white"/>
</svg>
