<svg width="100" height="88" viewBox="0 0 100 88" fill="none" xmlns="http://www.w3.org/2000/svg">
<path d="M93.5451 36.0745H6.45487C5.80774 36.0745 5.28308 35.5499 5.28308 34.9028V9.43058C5.28308 8.78345 5.80774 8.25879 6.45487 8.25879H93.5451C94.1922 8.25879 94.717 8.78345 94.717 9.43058V34.9026C94.7168 35.5499 94.1922 36.0745 93.5451 36.0745ZM7.62684 33.7308H92.3733V10.6025H7.62684V33.7308Z" fill="#1E2E36"/>
<path d="M93.5451 61.5466H6.45487C5.80774 61.5466 5.28308 61.022 5.28308 60.3747V34.9027C5.28308 34.2555 5.80774 33.7307 6.45487 33.7307H93.5451C94.1922 33.7307 94.717 34.2554 94.717 34.9027V60.3747C94.7168 61.022 94.1922 61.5466 93.5451 61.5466ZM7.62684 59.2029H92.3733V36.0746H7.62684V59.2029Z" fill="#1E2E36"/>
<path d="M93.5451 87.0186H6.45487C5.80774 87.0186 5.28308 86.494 5.28308 85.8467V60.3748C5.28308 59.7277 5.80774 59.2029 6.45487 59.2029H93.5451C94.1922 59.2029 94.717 59.7275 94.717 60.3748V85.8468C94.7168 86.494 94.1922 87.0186 93.5451 87.0186ZM7.62684 84.6749H92.3733V61.5466H7.62684V84.6749Z" fill="#1E2E36"/>
<path d="M52.1919 23.3386H47.8081C47.1609 23.3386 46.6361 22.814 46.6361 22.1668C46.6361 21.5197 47.1608 20.9949 47.8081 20.9949H52.1919C52.839 20.9949 53.3638 21.5195 53.3638 22.1668C53.3638 22.8141 52.839 23.3386 52.1919 23.3386Z" fill="#1E2E36"/>
<path d="M52.1919 48.8107H47.8081C47.1609 48.8107 46.6361 48.2861 46.6361 47.6388C46.6361 46.9915 47.1608 46.4668 47.8081 46.4668H52.1919C52.839 46.4668 53.3638 46.9915 53.3638 47.6388C53.3638 48.2861 52.839 48.8107 52.1919 48.8107Z" fill="#1E2E36"/>
<path d="M52.1919 74.2827H47.8081C47.1609 74.2827 46.6361 73.7581 46.6361 73.1108C46.6361 72.4635 47.1608 71.939 47.8081 71.939H52.1919C52.839 71.939 53.3638 72.4636 53.3638 73.1108C53.3638 73.7579 52.839 74.2827 52.1919 74.2827Z" fill="#1E2E36"/>
<path d="M96.875 10.6027H3.12501C1.4 10.6006 0.00202703 9.20267 0 7.47767V4.10621C0.00202703 2.3812 1.4 0.983228 3.12501 0.981201H96.875C98.6 0.983228 99.998 2.3812 100 4.10621V7.47767C99.998 9.20267 98.6 10.6006 96.875 10.6027ZM3.12501 3.32496C2.69375 3.32546 2.34426 3.67496 2.34375 4.10621V7.47767C2.34426 7.90892 2.69375 8.25841 3.12501 8.25892H96.875C97.3062 8.25841 97.6557 7.90892 97.6562 7.47767V4.10621C97.6557 3.67496 97.3062 3.32546 96.875 3.32496H3.12501Z" fill="#1E2E36"/>
</svg>
