<svg width="100" height="94" viewBox="0 0 100 94" fill="none" xmlns="http://www.w3.org/2000/svg">
<path d="M67.7878 88.1305H32.212C31.5648 88.1305 31.0402 87.6058 31.0402 86.9585V59.7137C31.0402 59.0666 31.5648 58.5417 32.212 58.5417H67.7878C68.435 58.5417 68.9598 59.0664 68.9598 59.7137V86.9585C68.9596 87.6058 68.435 88.1305 67.7878 88.1305ZM33.3839 85.7867H66.6161V60.8857H33.3839V85.7867Z" fill="#1E2E36"/>
<path d="M67.7878 93.1447H32.212C31.5648 93.1447 31.0402 92.62 31.0402 91.9727V86.9583C31.0402 86.3112 31.5648 85.7864 32.212 85.7864H67.7878C68.435 85.7864 68.9598 86.311 68.9598 86.9583V91.9727C68.9596 92.62 68.435 93.1447 67.7878 93.1447ZM33.3839 90.8009H66.6161V88.1303H33.3839V90.8009Z" fill="#1E2E36"/>
<path d="M67.7878 60.8856H32.212C31.5648 60.8856 31.0402 60.3609 31.0402 59.7138V48.1624C31.0402 47.5153 31.5648 46.9905 32.212 46.9905H67.7878C68.435 46.9905 68.9598 47.5151 68.9598 48.1624V59.7138C68.9596 60.3609 68.435 60.8856 67.7878 60.8856ZM33.3839 58.5419H66.6161V49.3342H33.3839V58.5419Z" fill="#1E2E36"/>
<path d="M49.9998 57.7356C47.9024 57.7356 46.202 56.0352 46.202 53.9379C46.202 51.8406 47.9024 50.1401 49.9997 50.1401C52.0971 50.1401 53.7975 51.8405 53.7975 53.9378C53.7953 56.0344 52.0963 57.7332 49.9998 57.7356ZM49.9998 52.4839C49.1968 52.4839 48.5458 53.1349 48.5458 53.9378C48.5458 54.7408 49.1968 55.3918 49.9997 55.3918C50.8027 55.3918 51.4537 54.7408 51.4537 53.9379C51.4531 53.1352 50.8025 52.4847 49.9998 52.4839Z" fill="#1E2E36"/>
<path d="M59.8668 57.7356C57.7693 57.7356 56.069 56.0352 56.069 53.9379C56.069 51.8405 57.7693 50.1401 59.8666 50.1401C61.9641 50.1401 63.6644 51.8405 63.6644 53.9378C63.6622 56.0344 61.9632 57.7332 59.8668 57.7356ZM59.8668 52.4839C59.0637 52.4839 58.4127 53.1349 58.4127 53.9378C58.4127 54.7408 59.0637 55.3918 59.8666 55.3918C60.6697 55.3918 61.3207 54.7408 61.3207 53.9379C61.3198 53.1352 60.6695 52.4849 59.8668 52.4839Z" fill="#1E2E36"/>
<path d="M40.133 57.7358C38.0355 57.7358 36.3352 56.0354 36.3352 53.9379C36.3352 51.8405 38.0355 50.1401 40.133 50.1401C42.2305 50.1401 43.9308 51.8405 43.9308 53.9379C43.9285 56.0346 42.2295 57.7334 40.133 57.7358ZM40.133 52.4841C39.33 52.4841 38.679 53.1351 38.679 53.9381C38.679 54.7412 39.33 55.3922 40.133 55.3922C40.9361 55.3922 41.5871 54.7412 41.5871 53.9381C41.5862 53.1354 40.9357 52.4849 40.133 52.4841Z" fill="#1E2E36"/>
<path d="M60.9086 67.7368H39.0915C37.5693 67.7362 36.3359 66.5019 36.3365 64.9798C36.3372 63.4585 37.5702 62.2254 39.0915 62.2249H60.9086C62.4307 62.2242 63.6651 63.4576 63.6656 64.9798C63.6663 66.5019 62.4329 67.7363 60.9107 67.7368C60.9099 67.7368 60.9092 67.7368 60.9086 67.7368ZM39.0915 64.5684C38.8637 64.5686 38.6793 64.7534 38.6795 64.9811C38.6796 65.2086 38.8639 65.3929 39.0915 65.3931H60.9086C61.1363 65.3933 61.3211 65.2088 61.3212 64.9811C61.3214 64.7534 61.1369 64.5686 60.9092 64.5684C60.9091 64.5684 60.9087 64.5684 60.9086 64.5684H39.0915Z" fill="#1E2E36"/>
<path d="M59.8668 84.389H40.133C39.4858 84.389 38.9612 83.8643 38.9612 83.217V66.5648C38.9612 65.9177 39.4858 65.3928 40.133 65.3928H59.8668C60.5139 65.3928 61.0386 65.9175 61.0386 66.5648V83.217C61.0388 83.8643 60.5141 84.389 59.8668 84.389ZM41.3049 82.0452H58.695V67.7367H41.3049V82.0452Z" fill="#1E2E36"/>
<path d="M42.1912 49.3341C41.5441 49.3341 41.0194 48.8095 41.0194 48.1622V45.2542C41.0194 44.6071 41.5441 44.0823 42.1912 44.0823C42.8383 44.0823 43.3632 44.6069 43.3632 45.2542V48.1622C43.3632 48.8095 42.8385 49.3341 42.1912 49.3341Z" fill="#1E2E36"/>
<path d="M47.7467 49.3342C47.0996 49.3342 46.5749 48.8096 46.5749 48.1623V46.426H45.0124C44.3653 46.426 43.8405 45.9013 43.8405 45.254C43.8405 44.6067 44.3651 44.082 45.0124 44.082H47.7467C48.3938 44.082 48.9187 44.6067 48.9187 45.254V48.1623C48.9185 48.8096 48.3938 49.3342 47.7467 49.3342Z" fill="#1E2E36"/>
<path d="M36.6356 49.3342C35.9885 49.3342 35.4636 48.8096 35.4636 48.1623V45.254C35.4636 44.6069 35.9883 44.082 36.6356 44.082H39.3699C40.017 44.082 40.5417 44.6067 40.5417 45.254C40.5417 45.9013 40.017 46.426 39.3699 46.426H37.8074V48.1623C37.8075 48.8096 37.2829 49.3342 36.6356 49.3342Z" fill="#1E2E36"/>
<path d="M57.8088 49.3341C57.1617 49.3341 56.6368 48.8095 56.6368 48.1622V45.2542C56.6368 44.6071 57.1615 44.0823 57.8088 44.0823C58.4561 44.0823 58.9806 44.6069 58.9806 45.2542V48.1622C58.9806 48.8095 58.4559 49.3341 57.8088 49.3341Z" fill="#1E2E36"/>
<path d="M52.2534 49.3342C51.6063 49.3342 51.0814 48.8096 51.0814 48.1623V45.254C51.0814 44.6069 51.6061 44.082 52.2534 44.082H54.9877C55.6348 44.082 56.1596 44.6067 56.1596 45.254C56.1596 45.9013 55.635 46.426 54.9877 46.426H53.4252V48.1623C53.4253 48.8096 52.9007 49.3342 52.2534 49.3342Z" fill="#1E2E36"/>
<path d="M63.3645 49.3342C62.7173 49.3342 62.1927 48.8096 62.1927 48.1623V46.426H60.6302C59.983 46.426 59.4584 45.9013 59.4584 45.254C59.4584 44.6067 59.983 44.082 60.6302 44.082H63.3645C64.0116 44.082 64.5364 44.6067 64.5364 45.254V48.1623C64.5362 48.8096 64.0116 49.3342 63.3645 49.3342Z" fill="#1E2E36"/>
<path d="M73.452 53.6021H71.3542C70.707 53.6021 70.1824 53.0774 70.1824 52.4303C70.1824 51.7831 70.707 51.2583 71.3542 51.2583H73.4521C74.0993 51.2583 74.6239 51.783 74.6239 52.4303C74.6239 53.0776 74.0993 53.6021 73.452 53.6021Z" fill="#1E2E36"/>
<path d="M77.0183 93.1448H67.788C67.1409 93.1448 66.6162 92.6201 66.6162 91.9728V48.1623C66.6162 47.5151 67.1409 46.9905 67.788 46.9905H77.0183C77.6654 46.9905 78.1902 47.5151 78.1902 48.1623V91.9728C78.1901 92.6201 77.6654 93.1448 77.0183 93.1448ZM68.9598 90.801H75.8463V49.3342H68.9598V90.801Z" fill="#1E2E36"/>
<path d="M98.828 71.2395H77.0182C76.3711 71.2395 75.8464 70.7148 75.8464 70.0677V48.1624C75.8464 47.5153 76.3711 46.9905 77.0182 46.9905H98.8282C99.4754 46.9905 100 47.5151 100 48.1624V70.0677C100 70.7148 99.4753 71.2395 98.828 71.2395ZM78.19 68.8958H97.6563V49.3342H78.19V68.8958Z" fill="#1E2E36"/>
<path d="M90.7335 53.6021H85.1127C84.4656 53.6021 83.9409 53.0774 83.9409 52.4303C83.9409 51.7831 84.4656 51.2583 85.1127 51.2583H90.7335C91.3806 51.2583 91.9055 51.783 91.9055 52.4303C91.9055 53.0776 91.3806 53.6021 90.7335 53.6021Z" fill="#1E2E36"/>
<path d="M19.5024 53.6021H13.8816C13.2345 53.6021 12.7098 53.0774 12.7098 52.4303C12.7098 51.7831 13.2345 51.2583 13.8816 51.2583H19.5022C20.1494 51.2583 20.674 51.783 20.674 52.4303C20.674 53.0776 20.1495 53.6021 19.5024 53.6021Z" fill="#1E2E36"/>
<path d="M98.828 93.1448H77.0182C76.3711 93.1448 75.8464 92.6201 75.8464 91.9728V70.0677C75.8464 69.4206 76.3711 68.8958 77.0182 68.8958H98.8282C99.4754 68.8958 100 69.4204 100 70.0677V91.9728C100 92.6201 99.4753 93.1448 98.828 93.1448ZM78.19 90.801H97.6563V71.2395H78.19V90.801Z" fill="#1E2E36"/>
<path d="M90.7335 75.5071H85.1127C84.4656 75.5071 83.9409 74.9824 83.9409 74.3351C83.9409 73.688 84.4656 73.1633 85.1127 73.1633H90.7335C91.3806 73.1633 91.9055 73.688 91.9055 74.3351C91.9053 74.9824 91.3806 75.5071 90.7335 75.5071Z" fill="#1E2E36"/>
<path d="M16.6919 93.1448H1.17179C0.524663 93.1448 0 92.6202 0 91.9729V59.7137C0 59.0666 0.524663 58.5417 1.17179 58.5417H16.6919C17.3391 58.5417 17.8637 59.0664 17.8637 59.7137V91.9729C17.8639 92.6202 17.3392 93.1448 16.6919 93.1448ZM2.34375 90.8011H15.5201V60.8857H2.34375V90.8011Z" fill="#1E2E36"/>
<path d="M32.2121 93.1448H16.6919C16.0448 93.1448 15.5201 92.6202 15.5201 91.9729V59.7137C15.5201 59.0666 16.0448 58.5417 16.6919 58.5417H32.2121C32.8592 58.5417 33.3839 59.0664 33.3839 59.7137V91.9729C33.384 92.6202 32.8594 93.1448 32.2121 93.1448ZM17.8639 90.8011H31.0403V60.8857H17.8639V90.8011Z" fill="#1E2E36"/>
<path d="M20.3975 78.9658C19.7504 78.9658 19.2257 78.4411 19.2257 77.794V73.893C19.2257 73.2459 19.7504 72.7212 20.3975 72.7212C21.0446 72.7212 21.5693 73.2459 21.5693 73.893V77.7942C21.5693 78.4411 21.0446 78.9658 20.3975 78.9658Z" fill="#1E2E36"/>
<path d="M12.9865 78.9658C12.3394 78.9658 11.8147 78.4411 11.8147 77.794V73.893C11.8147 73.2459 12.3394 72.7212 12.9865 72.7212C13.6336 72.7212 14.1583 73.2459 14.1583 73.893V77.7942C14.1583 78.4411 13.6336 78.9658 12.9865 78.9658Z" fill="#1E2E36"/>
<path d="M32.212 60.8856H1.17179C0.524663 60.8856 0 60.3609 0 59.7138V48.1624C0 47.5153 0.524663 46.9905 1.17179 46.9905H32.212C32.8592 46.9905 33.3838 47.5151 33.3838 48.1624V59.7138C33.384 60.3609 32.8593 60.8856 32.212 60.8856ZM2.34375 58.5419H31.0403V49.3342H2.34375V58.5419Z" fill="#1E2E36"/>
<path d="M66.4667 24.7771H33.5331C32.1569 24.7755 31.0417 23.6603 31.0402 22.2841V18.9188C31.0417 17.5426 32.1569 16.4275 33.5331 16.426H66.4669C67.8431 16.4275 68.9583 17.5428 68.9598 18.9189V22.2843C68.9583 23.6603 67.8429 24.7755 66.4667 24.7771ZM33.5331 18.7696C33.4508 18.7698 33.3841 18.8365 33.3839 18.9188V22.2841C33.3841 22.3664 33.4508 22.4331 33.5331 22.4333H66.4669C66.5492 22.4331 66.6159 22.3664 66.6161 22.2841V18.9188C66.6159 18.8365 66.5492 18.7698 66.4669 18.7696H33.5331Z" fill="#1E2E36"/>
<path d="M64.0241 18.7696H35.9759C34.6122 18.7696 33.5066 17.6642 33.5065 16.3005C33.5065 15.5409 33.856 14.8236 34.4543 14.3556L35.3548 13.651C38.9409 10.8627 41.0328 6.57008 41.0192 2.02751C41.0192 1.38038 41.5438 0.855713 42.1909 0.855713H57.8087C58.4558 0.855713 58.9805 1.38038 58.9805 2.02751C58.9668 6.57008 61.0587 10.8627 64.645 13.651L65.5454 14.3556C66.6195 15.1958 66.8092 16.7476 65.969 17.8216C65.5013 18.4201 64.7837 18.7698 64.0241 18.7696ZM43.3237 3.1993C43.006 8.04255 40.6311 12.5184 36.799 15.497L35.8984 16.2015C35.8438 16.2443 35.8342 16.3231 35.8769 16.3777C35.9007 16.4081 35.9372 16.4258 35.9757 16.4258H64.0241C64.0934 16.4258 64.1496 16.3696 64.1496 16.3003C64.1496 16.2618 64.1319 16.2253 64.1016 16.2017H64.1015L63.2011 15.4971C59.3689 12.5186 56.9942 8.04272 56.6764 3.19947H43.3237V3.1993Z" fill="#1E2E36"/>
<path d="M95.2003 24.7771H76.5516C74.9297 24.7771 73.6146 23.4622 73.6146 21.8401C73.6146 20.2179 74.9295 18.9031 76.5516 18.9031H95.2003C96.8223 18.9031 98.1373 20.2179 98.1373 21.8401C98.1373 23.4622 96.8223 24.7771 95.2003 24.7771ZM76.5516 21.247C76.2241 21.247 75.9584 21.5125 75.9584 21.8402C75.9584 22.1678 76.2239 22.4335 76.5516 22.4335H95.2003C95.5278 22.4335 95.7935 22.168 95.7935 21.8402C95.7935 21.5127 95.528 21.247 95.2003 21.247H76.5516Z" fill="#1E2E36"/>
<path d="M23.4483 24.7771H4.79967C3.17771 24.7771 1.86267 23.4622 1.86267 21.8401C1.86267 20.2179 3.17754 18.9031 4.79967 18.9031H23.4483C25.0703 18.9031 26.3853 20.2179 26.3853 21.8401C26.3853 23.4622 25.0705 24.7771 23.4483 24.7771ZM4.79967 21.247C4.47213 21.247 4.20642 21.5125 4.20642 21.8402C4.20642 22.1678 4.47197 22.4335 4.79967 22.4335H23.4483C23.7759 22.4335 24.0416 22.168 24.0416 21.8402C24.0416 21.5127 23.776 21.247 23.4483 21.247H4.79967Z" fill="#1E2E36"/>
<path d="M21.5774 21.247H16.8103C16.1632 21.247 15.6385 20.7223 15.6385 20.0752V16.0463C15.6385 15.3992 16.1632 14.8745 16.8103 14.8745H21.5774C22.2245 14.8745 22.7492 15.3992 22.7492 16.0463V20.0752C22.7494 20.7223 22.2247 21.247 21.5774 21.247ZM17.9823 18.9032H20.4056V17.2181H17.9823V18.9032Z" fill="#1E2E36"/>
<path d="M22.7005 17.2181H15.6873C15.0402 17.2181 14.5155 16.6934 14.5155 16.0463C14.5155 15.3992 15.0402 14.8745 15.6873 14.8745H22.7005C23.3476 14.8745 23.8723 15.3992 23.8723 16.0463C23.8723 16.6934 23.3476 17.2181 22.7005 17.2181Z" fill="#1E2E36"/>
<path d="M11.4375 21.247H6.67045C6.02332 21.247 5.49866 20.7223 5.49866 20.0752V16.0463C5.49866 15.3992 6.02332 14.8745 6.67045 14.8745H11.4375C12.0846 14.8745 12.6093 15.3992 12.6093 16.0463V20.0752C12.6093 20.7223 12.0846 21.247 11.4375 21.247ZM7.84224 18.9032H10.2656V17.2181H7.84241L7.84224 18.9032Z" fill="#1E2E36"/>
<path d="M12.5605 17.2181H5.54752C4.9004 17.2181 4.37573 16.6934 4.37573 16.0463C4.37573 15.3992 4.9004 14.8745 5.54752 14.8745H12.5607C13.2078 14.8745 13.7325 15.3992 13.7325 16.0463C13.7325 16.6934 13.2078 17.2181 12.5605 17.2181Z" fill="#1E2E36"/>
<path d="M21.5774 17.218H16.8103C16.1632 17.218 15.6385 16.6933 15.6385 16.0462V12.0175C15.6385 11.3704 16.1632 10.8457 16.8103 10.8457H21.5774C22.2245 10.8457 22.7492 11.3704 22.7492 12.0175V16.0462C22.7494 16.6933 22.2247 17.218 21.5774 17.218ZM17.9823 14.8743H20.4056V13.1893H17.9823V14.8743Z" fill="#1E2E36"/>
<path d="M22.7005 13.1893H15.6873C15.0402 13.1893 14.5155 12.6646 14.5155 12.0175C14.5155 11.3704 15.0402 10.8457 15.6873 10.8457H22.7005C23.3476 10.8457 23.8723 11.3704 23.8723 12.0175C23.8723 12.6646 23.3476 13.1893 22.7005 13.1893Z" fill="#1E2E36"/>
<path d="M11.4375 17.218H6.67045C6.02332 17.218 5.49866 16.6933 5.49866 16.0462V12.0175C5.49866 11.3704 6.02332 10.8457 6.67045 10.8457H11.4375C12.0846 10.8457 12.6093 11.3704 12.6093 12.0175V16.0462C12.6093 16.6933 12.0846 17.218 11.4375 17.218ZM7.84224 14.8743H10.2656V13.1893H7.84241L7.84224 14.8743Z" fill="#1E2E36"/>
<path d="M12.5605 13.1893H5.54752C4.9004 13.1893 4.37573 12.6646 4.37573 12.0175C4.37573 11.3704 4.9004 10.8457 5.54752 10.8457H12.5607C13.2078 10.8457 13.7325 11.3704 13.7325 12.0175C13.7325 12.6646 13.2078 13.1893 12.5605 13.1893Z" fill="#1E2E36"/>
<path d="M85.876 21.247C81.6985 21.2463 78.3123 17.8591 78.313 13.6816C78.3132 12.2588 78.7147 10.8647 79.4714 9.65977C79.686 9.31906 80.0605 9.1123 80.4632 9.1123H91.2887C91.6912 9.1123 92.0655 9.31889 92.2801 9.6596C94.502 13.1971 93.4355 17.8662 89.898 20.0882C88.6931 20.8451 87.299 21.2466 85.876 21.247ZM81.1547 11.4561C79.9263 14.0637 81.0444 17.1733 83.652 18.4017C86.2596 19.6301 89.3692 18.512 90.5976 15.9044C91.2611 14.4959 91.2611 12.8647 90.5976 11.4562H81.1547V11.4561Z" fill="#1E2E36"/>
<path d="M85.7668 11.4561C85.1197 11.4561 84.5948 10.9315 84.5948 10.2843V2.74479C84.5948 2.09766 85.1195 1.573 85.7668 1.573C86.4141 1.573 86.9386 2.09766 86.9386 2.74479V10.2843C86.9386 10.9315 86.4139 11.4561 85.7668 11.4561Z" fill="#1E2E36"/>
<path d="M85.7669 11.4562C85.1198 11.4562 84.5951 10.9313 84.5951 10.2842C84.5951 9.97339 84.7186 9.67541 84.9383 9.45565L88.9934 5.40057C89.4556 4.94753 90.1976 4.95513 90.6507 5.4173C91.0973 5.87304 91.0973 6.60227 90.6505 7.05784L86.5954 11.1129C86.3758 11.333 86.0777 11.4567 85.7669 11.4562Z" fill="#1E2E36"/>
<path d="M85.7669 11.456C85.4561 11.4564 85.1578 11.3329 84.9383 11.1128L80.8832 7.05772C80.4207 6.60502 80.4128 5.86296 80.8657 5.40046C81.3184 4.93795 82.0604 4.93002 82.5229 5.38289C82.5289 5.38863 82.5346 5.39454 82.5405 5.40046L86.5956 9.45553C87.0532 9.91313 87.0532 10.6552 86.5956 11.1128C86.3757 11.3326 86.0775 11.456 85.7669 11.456Z" fill="#1E2E36"/>
<path d="M60.8572 46.4261H55.1421C51.9016 46.4224 49.2756 43.7964 49.2719 40.5558V37.8011C49.2719 37.154 49.7965 36.6292 50.4438 36.6292H65.5555C66.2026 36.6292 66.7275 37.1538 66.7275 37.8011V40.5558C66.7237 43.7964 64.0977 46.4224 60.8572 46.4261ZM51.6158 38.9731V40.556C51.618 42.5028 53.1955 44.0803 55.1423 44.0825H60.8573C62.8041 44.0803 64.3817 42.5028 64.3839 40.556V38.9731H51.6158Z" fill="#1E2E36"/>
<path d="M67.7879 41.0384H65.5555C64.9084 41.0384 64.3835 40.5137 64.3835 39.8666C64.3835 39.2195 64.9082 38.6948 65.5555 38.6948H67.7879C68.4351 38.6948 68.9599 39.2195 68.9599 39.8666C68.9599 40.5137 68.4351 41.0384 67.7879 41.0384Z" fill="#1E2E36"/>
<path d="M50.0623 41.0384H47.8299C47.1827 41.0384 46.6581 40.5137 46.6581 39.8666C46.6581 39.2195 47.1827 38.6948 47.8299 38.6948H50.0623C50.7094 38.6948 51.2343 39.2195 51.2343 39.8666C51.2343 40.5137 50.7096 41.0384 50.0623 41.0384Z" fill="#1E2E36"/>
<path d="M65.5555 38.973H50.4438C49.7967 38.973 49.2719 38.4483 49.2719 37.8012C49.2719 37.5642 49.3436 37.3328 49.4779 37.1373C51.1175 34.7517 54.3827 33.2698 57.9996 33.2698C61.6165 33.2698 64.8815 34.7517 66.5212 37.1373C66.8877 37.6706 66.7526 38.4004 66.2193 38.7669C66.0241 38.901 65.7926 38.973 65.5555 38.973ZM53.5906 36.6292H62.4087C59.6252 35.2747 56.3739 35.2747 53.5906 36.6292Z" fill="#1E2E36"/>
<path d="M56.5687 35.7025C56.2817 35.7028 56.0045 35.5974 55.7903 35.4062C54.4156 34.1858 54.2906 32.0819 55.5111 30.7071C56.7315 29.3324 58.8354 29.2074 60.2102 30.4278C61.5849 31.6483 61.7099 33.7522 60.4895 35.127C60.4021 35.2255 60.3089 35.3185 60.2104 35.406C59.7297 35.8393 58.9886 35.8008 58.5553 35.3201C58.1221 34.8393 58.1606 34.0983 58.6413 33.665C58.645 33.6616 58.6488 33.6582 58.6525 33.655C59.0602 33.2947 59.0986 32.6723 58.7384 32.2647C58.3781 31.8571 57.7557 31.8185 57.3481 32.1787C56.9405 32.539 56.902 33.1615 57.2621 33.5691C57.289 33.5995 57.3175 33.628 57.3479 33.6549C57.8315 34.0849 57.8749 34.8256 57.4449 35.3093C57.2222 35.5596 56.9035 35.7025 56.5687 35.7025Z" fill="#1E2E36"/>
<path d="M13.9029 49.3343H8.95304C8.30591 49.3343 7.78125 48.8097 7.78125 48.1624V35.5754C7.78125 34.9282 8.30591 34.4036 8.95304 34.4036H13.9029C14.55 34.4036 15.0747 34.9282 15.0747 35.5754V48.1624C15.0748 48.8097 14.5502 49.3343 13.9029 49.3343ZM10.125 46.9906H12.7311V36.7473H10.125V46.9906Z" fill="#1E2E36"/>
<path d="M8.95301 49.3343H4.00334C3.35621 49.3343 2.83154 48.8097 2.83154 48.1624V35.5754C2.83154 34.9282 3.35621 34.4036 4.00334 34.4036H8.95301C9.60014 34.4036 10.1248 34.9282 10.1248 35.5754V48.1624C10.125 48.8097 9.6003 49.3343 8.95301 49.3343ZM5.17513 46.9906H7.78104V36.7473H5.1753L5.17513 46.9906Z" fill="#1E2E36"/>
<path d="M24.7744 49.3342H22.5644C20.3282 49.3317 18.5163 47.5195 18.5135 45.2834V41.1744C18.5135 40.5273 19.0382 40.0024 19.6853 40.0024H27.6533C28.3004 40.0024 28.8251 40.5271 28.8251 41.1744V45.2834C28.8227 47.5195 27.0105 49.3317 24.7744 49.3342ZM20.8575 42.3462V45.2834C20.8585 46.2258 21.6222 46.9893 22.5646 46.9905H24.7744C25.7168 46.9894 26.4805 46.2258 26.4815 45.2834V42.3464H20.8575V42.3462Z" fill="#1E2E36"/>
<path d="M28.3387 42.346H19C17.7781 42.3447 16.7879 41.3545 16.7865 40.1325V38.9171C16.7879 37.6952 17.7782 36.705 19 36.7036H28.3387C29.5607 36.705 30.5509 37.6952 30.5522 38.9171V40.1325C30.5509 41.3545 29.5607 42.3447 28.3387 42.346ZM19.1303 40.0023H28.2086V39.0474H19.1303V40.0023Z" fill="#1E2E36"/>
<path d="M77.9696 49.3342H71.9363C71.2892 49.3342 70.7645 48.8096 70.7645 48.1623V39.9156C70.7645 39.2685 71.2892 38.7437 71.9363 38.7437H77.9696C78.6167 38.7437 79.1416 39.2683 79.1416 39.9156V48.1623C79.1414 48.8096 78.6167 49.3342 77.9696 49.3342ZM73.1083 46.9905H76.7978V41.0876H73.1083V46.9905Z" fill="#1E2E36"/>
<path d="M77.9696 41.0875H71.9363C71.2892 41.0875 70.7645 40.5628 70.7645 39.9157V36.3133C70.7645 35.6662 71.2892 35.1414 71.9363 35.1414H77.9696C78.6167 35.1414 79.1416 35.666 79.1416 36.3133V39.9157C79.1414 40.5628 78.6167 41.0875 77.9696 41.0875ZM73.1083 38.7437H76.7978V37.4851H73.1083V38.7437Z" fill="#1E2E36"/>
<path d="M92.4371 45.3708C90.5225 45.3708 89.0227 43.5278 89.0227 41.1749C89.0227 38.822 90.5224 36.9788 92.4371 36.9788C94.3516 36.9788 95.8514 38.822 95.8514 41.1749C95.8514 43.5278 94.3516 45.3708 92.4371 45.3708ZM92.4371 39.3225C91.9317 39.3225 91.3665 40.1146 91.3665 41.1749C91.3665 42.235 91.9317 43.0271 92.4371 43.0271C92.9425 43.0271 93.5077 42.235 93.5077 41.1749C93.5077 40.1147 92.9425 39.3225 92.4371 39.3225Z" fill="#1E2E36"/>
<path d="M92.4369 39.3002C91.8906 39.3002 91.4166 38.9226 91.2946 38.39L89.5036 30.5765C89.1323 28.9564 90.1445 27.342 91.7646 26.9706C93.3847 26.5991 94.999 27.6115 95.3705 29.2316C95.472 29.6741 95.472 30.1339 95.3705 30.5765L93.5793 38.39C93.457 38.9226 92.9832 39.3002 92.4369 39.3002ZM92.4369 29.2385C92.0693 29.2385 91.7712 29.5365 91.7712 29.9042C91.7712 29.9542 91.7767 30.0042 91.7881 30.053L92.4369 32.8838L93.0859 30.0532C93.1681 29.6949 92.9441 29.3376 92.5859 29.2555C92.537 29.2441 92.487 29.2385 92.4369 29.2385Z" fill="#1E2E36"/>
<path d="M84.0078 39.3002C83.4615 39.3002 82.9875 38.9227 82.8656 38.3903L81.0743 30.5767C80.7029 28.9566 81.7152 27.3421 83.3353 26.9708C84.9554 26.5994 86.57 27.6117 86.9412 29.2318C87.0428 29.6744 87.0428 30.1342 86.9412 30.5767L85.15 38.3903C85.0281 38.9229 84.5541 39.3002 84.0078 39.3002ZM84.0078 29.2386C83.6401 29.2386 83.3421 29.5365 83.3421 29.9043C83.3421 29.9544 83.3477 30.0043 83.359 30.0533L84.0078 32.884L84.6566 30.0533C84.7389 29.6948 84.5149 29.3377 84.1566 29.2556C84.1078 29.2441 84.058 29.2386 84.0078 29.2386Z" fill="#1E2E36"/>
<path d="M86.7007 43.0877H81.315C80.7321 43.0877 80.2378 42.6592 80.1551 42.0822C79.9527 40.7295 80.348 39.3556 81.238 38.3171C81.9951 37.4436 83.0046 36.9426 84.0078 36.9426C85.011 36.9426 86.0208 37.4436 86.778 38.3171C87.6679 39.3556 88.063 40.7296 87.8606 42.0822C87.7779 42.6594 87.2836 43.0877 86.7007 43.0877ZM82.5355 40.744H85.4804C85.3914 40.4151 85.2296 40.1104 85.0069 39.8523C84.7089 39.5085 84.3169 39.2864 84.0078 39.2864C83.6986 39.2864 83.3067 39.5085 83.0089 39.8523C82.7865 40.1102 82.6245 40.4151 82.5355 40.744Z" fill="#1E2E36"/>
</svg>
