<svg width="68" height="100" viewBox="0 0 68 100" fill="none" xmlns="http://www.w3.org/2000/svg">
<path d="M66.7649 100H1.2349C0.587773 100 0.0631104 99.4753 0.0631104 98.828V1.17179C0.0631104 0.524663 0.587773 0 1.2349 0H66.7649C67.412 0 67.9369 0.524663 67.9369 1.17179V98.828C67.9367 99.4753 67.412 100 66.7649 100ZM2.40686 97.6562H65.5929V2.34375H2.40686V97.6562Z" fill="#1E2E36"/>
<path d="M33.9998 71.4942C33.3527 71.4942 32.8279 71.119 32.8279 70.6564V0.837839C32.8279 0.37517 33.3525 0 33.9998 0C34.6471 0 35.1716 0.37517 35.1716 0.837839V70.6562C35.1718 71.1189 34.6471 71.4942 33.9998 71.4942Z" fill="#1E2E36"/>
<path d="M33.9998 100H1.2349C0.587773 100 0.0631104 99.4753 0.0631104 98.828V84.5751C0.0631104 83.928 0.587773 83.4033 1.2349 83.4033H33.9998C34.6469 83.4033 35.1716 83.928 35.1716 84.5751V98.828C35.1718 99.4753 34.6471 100 33.9998 100ZM2.40686 97.6562H32.828V85.7471H2.40686V97.6562Z" fill="#1E2E36"/>
<path d="M33.9998 85.7472H1.2349C0.587773 85.7472 0.0631104 85.2225 0.0631104 84.5752V70.3224C0.0631104 69.6752 0.587773 69.1504 1.2349 69.1504H33.9998C34.6469 69.1504 35.1716 69.6751 35.1716 70.3224V84.5752C35.1718 85.2225 34.6471 85.7472 33.9998 85.7472ZM2.4067 83.4035H32.8279V71.4943H2.40686L2.4067 83.4035Z" fill="#1E2E36"/>
<path d="M19.2667 78.6206H15.9681C15.3209 78.6206 14.7963 78.0959 14.7963 77.4488C14.7963 76.8017 15.3209 76.2769 15.9681 76.2769H19.2667C19.9138 76.2769 20.4385 76.8015 20.4385 77.4488C20.4385 78.0961 19.9138 78.6206 19.2667 78.6206Z" fill="#1E2E36"/>
<path d="M27.0937 38.3537C26.4466 38.3537 25.9218 37.8291 25.9218 37.1819V34.3122C25.9218 33.665 26.4464 33.1404 27.0937 33.1404C27.741 33.1404 28.2655 33.665 28.2655 34.3122V37.1819C28.2655 37.8291 27.7408 38.3537 27.0937 38.3537Z" fill="#1E2E36"/>
<path d="M40.906 52.607C40.2589 52.607 39.7343 52.0823 39.7343 51.435V48.5653C39.7343 47.9181 40.2589 47.3933 40.906 47.3933C41.5532 47.3933 42.078 47.918 42.078 48.5653V51.435C42.078 52.0823 41.5533 52.607 40.906 52.607Z" fill="#1E2E36"/>
<path d="M19.2667 92.8735H15.9681C15.3209 92.8735 14.7963 92.3489 14.7963 91.7018C14.7963 91.0546 15.3209 90.5298 15.9681 90.5298H19.2667C19.9138 90.5298 20.4385 91.0545 20.4385 91.7018C20.4385 92.3491 19.9138 92.8735 19.2667 92.8735Z" fill="#1E2E36"/>
</svg>
