<svg width="22" height="19" viewBox="0 0 22 19" fill="none" xmlns="http://www.w3.org/2000/svg">
<path fill-rule="evenodd" clip-rule="evenodd" d="M8.6736 12.0686L8.67319 12.0683L8.67365 12.0678L8.67366 12.0677L8.67373 12.0678L17.9473 3.69909C18.3543 3.33786 17.8584 3.16171 17.3181 3.48936L5.87259 10.7102L0.928757 9.16714C-0.138893 8.84024 -0.14656 8.10659 1.16846 7.57914L20.4335 0.150643C21.3133 -0.248824 22.1626 0.361976 21.8267 1.70868L18.5459 17.1692C18.3168 18.2678 17.6529 18.5306 16.7332 18.0231L11.7355 14.3307L9.33332 16.6666C9.32575 16.6739 9.31821 16.6813 9.31072 16.6886C9.04204 16.9501 8.81975 17.1666 8.33332 17.1666L8.6736 12.0686Z" fill="#1E2E36"/>
</svg>
