<svg width="20" height="22" viewBox="0 0 20 22" fill="none" xmlns="http://www.w3.org/2000/svg">
<path fill-rule="evenodd" clip-rule="evenodd" d="M3 3.75C2.30964 3.75 1.75 4.30964 1.75 5V19C1.75 19.6904 2.30964 20.25 3 20.25H17C17.6904 20.25 18.25 19.6904 18.25 19V5C18.25 4.30964 17.6904 3.75 17 3.75H3ZM0.25 5C0.25 3.48122 1.48122 2.25 3 2.25H17C18.5188 2.25 19.75 3.48122 19.75 5V19C19.75 20.5188 18.5188 21.75 17 21.75H3C1.48122 21.75 0.25 20.5188 0.25 19V5Z" fill="white"/>
<path fill-rule="evenodd" clip-rule="evenodd" d="M14 0.25C14.4142 0.25 14.75 0.585786 14.75 1V5C14.75 5.41421 14.4142 5.75 14 5.75C13.5858 5.75 13.25 5.41421 13.25 5V1C13.25 0.585786 13.5858 0.25 14 0.25Z" fill="white"/>
<path fill-rule="evenodd" clip-rule="evenodd" d="M6 0.25C6.41421 0.25 6.75 0.585786 6.75 1V5C6.75 5.41421 6.41421 5.75 6 5.75C5.58579 5.75 5.25 5.41421 5.25 5V1C5.25 0.585786 5.58579 0.25 6 0.25Z" fill="white"/>
<path fill-rule="evenodd" clip-rule="evenodd" d="M0.25 9C0.25 8.58579 0.585786 8.25 1 8.25H19C19.4142 8.25 19.75 8.58579 19.75 9C19.75 9.41421 19.4142 9.75 19 9.75H1C0.585786 9.75 0.25 9.41421 0.25 9Z" fill="white"/>
</svg>
